<?xml version="1.0" standalone="no"?>
<!DOCTYPE svg PUBLIC "-//W3C//DTD SVG 20010904//EN"
 "http://www.w3.org/TR/2001/REC-SVG-20010904/DTD/svg10.dtd">
<svg version="1.0" xmlns="http://www.w3.org/2000/svg"
 width="500.000000pt" height="500.000000pt" viewBox="0 0 500.000000 500.000000"
 preserveAspectRatio="xMidYMid meet">

<g transform="translate(0.000000,500.000000) scale(0.100000,-0.100000)"
fill="#000000" stroke="none">
<path d="M3565 4326 c-128 -59 -177 -84 -270 -139 -149 -87 -165 -102 -165
-143 0 -37 -14 -46 -23 -14 -3 11 -10 20 -15 20 -19 0 -165 -122 -262 -219
-138 -138 -252 -285 -343 -442 -32 -54 -35 -122 -12 -209 8 -30 15 -59 15 -64
0 -20 -35 22 -55 66 -12 26 -25 45 -29 41 -17 -17 0 -204 32 -360 10 -47 2
-115 -22 -182 -9 -24 -16 -51 -15 -60 0 -9 13 20 28 64 104 300 275 643 442
892 107 158 338 427 354 411 3 -2 -25 -40 -63 -84 -118 -139 -147 -176 -229
-299 -157 -235 -273 -454 -379 -711 -64 -157 -193 -541 -219 -654 -10 -41 -19
-81 -21 -87 -2 -9 -25 -13 -66 -13 -122 -1 -191 -16 -304 -66 -227 -101 -229
-104 -228 -237 0 -67 10 -138 37 -262 67 -306 72 -318 137 -329 109 -17 461
-26 668 -17 250 12 279 16 297 45 31 51 115 468 115 576 0 112 -10 123 -200
208 l-162 73 -139 6 c-103 5 -139 9 -139 19 0 17 106 149 164 203 30 28 45 49
41 59 -30 79 -31 204 -1 272 33 77 75 105 214 141 174 46 324 116 334 157 5
19 2 20 -68 15 -87 -7 -97 6 -29 36 72 32 136 81 147 112 5 16 14 29 19 29 5
0 16 26 24 58 9 31 27 95 41 142 33 118 25 170 -25 162 -17 -2 -34 3 -44 13
-9 9 -21 14 -27 10 -5 -3 -7 0 -4 9 7 17 -15 23 -67 18 -32 -3 -42 -11 -72
-55 -86 -128 -134 -214 -124 -223 10 -11 137 13 218 41 40 13 75 22 78 20 5
-5 -29 -38 -80 -76 -47 -36 -142 -83 -211 -104 -42 -14 -58 -24 -61 -39 -3
-15 -5 -13 -6 9 -2 26 -3 28 -11 10 -9 -19 -9 -19 -16 3 -5 17 -9 20 -15 11
-4 -8 -11 -10 -15 -7 -3 4 14 44 39 90 112 208 203 352 316 498 147 191 369
427 511 543 51 42 38 46 -35 13z m-764 -2343 c25 -24 26 -42 9 -141 l-12 -72
-97 0 c-133 0 -285 11 -271 20 9 5 11 39 8 108 l-3 101 95 4 c195 8 248 4 271
-20z m-30 -353 c18 -24 18 -28 -1 -145 -11 -66 -23 -130 -25 -141 -5 -21 -8
-21 -147 -16 -79 2 -147 8 -152 13 -6 6 -5 9 2 9 9 0 10 5 3 18 -6 11 -6 24
-1 32 5 9 5 19 -2 27 -5 7 -7 24 -4 38 4 14 2 25 -3 25 -6 0 -8 7 -5 15 4 8
19 15 35 15 24 0 30 5 38 38 6 20 11 45 11 54 0 46 6 49 123 46 104 -3 111 -4
128 -28z"/>
<path d="M3245 3745 c-38 -19 -75 -34 -81 -35 -6 0 -17 -7 -24 -15 -15 -18
-11 -18 60 -1 61 15 125 49 134 71 8 22 -11 17 -89 -20z"/>
<path d="M2793 2811 c-110 -28 -150 -43 -179 -67 -54 -44 -55 -56 -2 -40 24 8
63 18 88 24 37 8 40 10 15 11 -43 2 -21 16 62 40 73 22 163 58 163 66 0 3 -1
4 -2 4 -2 -1 -67 -18 -145 -38z"/>
<path d="M1930 1170 c-7 -13 -9 -109 -3 -140 7 -32 8 -30 13 25 l5 60 45 0 45
0 3 -58 c2 -33 7 -55 13 -52 13 9 11 99 -3 113 -7 7 -33 12 -59 12 -41 0 -48
3 -52 23 -2 12 -5 20 -7 17z"/>
<path d="M2390 1097 c0 -43 5 -78 12 -85 15 -15 58 -16 58 -2 0 6 -11 10 -25
10 -23 0 -25 3 -25 49 0 46 2 50 28 54 l27 4 -27 2 c-21 1 -28 6 -28 21 0 11
-4 20 -10 20 -6 0 -10 -31 -10 -73z"/>
<path d="M1736 1144 c-9 -23 -7 -117 3 -132 5 -9 28 -12 77 -10 l69 3 3 38 c3
35 2 37 -25 36 -27 0 -27 -1 -5 -9 27 -12 29 -46 2 -55 -11 -3 -40 -3 -65 1
l-45 6 0 65 0 65 70 -4 c39 -2 70 0 70 4 0 4 -33 8 -74 8 -58 0 -75 -3 -80
-16z"/>
<path d="M2490 1080 c0 -54 4 -79 10 -75 6 4 10 16 8 28 -3 20 2 22 47 25 92
4 97 7 93 55 l-3 42 -77 3 -78 3 0 -81z m145 35 l0 -30 -64 0 c-64 0 -65 0
-64 28 1 15 1 29 2 32 1 3 29 5 64 3 62 -3 62 -3 62 -33z"/>
<path d="M2084 1117 c-3 -8 -4 -36 -2 -63 l3 -49 57 -3 c53 -3 58 -1 63 21 4
13 5 41 3 63 l-3 39 -58 3 c-42 2 -59 -1 -63 -11z m110 -13 c10 -27 7 -71 -8
-83 -11 -9 -37 -10 -88 -2 -10 1 -11 85 -1 94 3 4 25 7 49 7 29 0 44 -5 48
-16z"/>
<path d="M2241 1116 c-7 -8 -10 -24 -6 -36 5 -17 15 -20 61 -20 52 0 55 -2 52
-22 -3 -21 -8 -23 -55 -21 -29 1 -53 -2 -53 -7 0 -6 25 -10 55 -10 42 0 56 4
64 18 17 33 -5 52 -60 52 -47 0 -50 2 -47 23 2 18 10 23 41 25 22 2 45 -3 54
-10 14 -11 15 -11 11 2 -7 21 -100 26 -117 6z"/>
<path d="M2683 1124 c-20 -9 -17 -110 3 -118 27 -10 116 -7 109 4 -3 6 -28 10
-56 10 -42 0 -49 3 -49 20 0 18 7 20 56 20 l55 0 -3 33 c-3 31 -4 32 -53 34
-27 1 -56 0 -62 -3z m105 -31 c3 -21 0 -23 -47 -23 -48 0 -51 2 -51 26 0 24 2
25 48 22 40 -3 47 -6 50 -25z"/>
<path d="M2837 1123 c-11 -10 -8 -111 2 -118 6 -3 11 19 13 52 l3 58 45 0 45
0 3 -58 c2 -33 7 -55 13 -52 13 9 11 99 -3 113 -13 13 -110 17 -121 5z"/>
<path d="M2480 936 c0 -2 7 -6 15 -10 8 -3 15 -1 15 4 0 6 -7 10 -15 10 -8 0
-15 -2 -15 -4z"/>
</g>
</svg>
